<svg width="13" height="28" viewBox="0 0 13 28" fill="none" xmlns="http://www.w3.org/2000/svg">
<path d="M1.10857 0.405718C0.942553 0.620047 0.849609 0.907766 0.849609 1.20737C0.849609 1.50698 0.942553 1.79469 1.10857 2.00902L10.3837 14.0074L1.10857 26.0034C0.942553 26.2177 0.849609 26.5054 0.849609 26.805C0.849609 27.1047 0.942553 27.3924 1.10857 27.6067C1.18927 27.7112 1.28575 27.7943 1.39232 27.851C1.49889 27.9077 1.61339 27.9369 1.72907 27.9369C1.84475 27.9369 1.95925 27.9077 2.06582 27.851C2.17239 27.7943 2.26887 27.7112 2.34957 27.6067L12.2129 14.8451C12.3861 14.621 12.4831 14.3204 12.4831 14.0074C12.4831 13.6944 12.3861 13.3939 12.2129 13.1698L2.34957 0.408119C2.26887 0.303608 2.17239 0.220541 2.06582 0.163822C1.95925 0.107103 1.84475 0.0778809 1.72907 0.0778809C1.61339 0.0778809 1.49889 0.107103 1.39232 0.163822C1.28575 0.220541 1.18927 0.303608 1.10857 0.408119V0.405718Z" fill="white"/>
</svg>