<svg width="13" height="29" viewBox="0 0 13 29" fill="none" xmlns="http://www.w3.org/2000/svg">
<path d="M12.2747 28.3274C12.4407 28.1131 12.5337 27.8254 12.5337 27.5258C12.5337 27.2262 12.4407 26.9385 12.2747 26.7241L2.99958 14.7257L12.2747 2.72976C12.4407 2.51543 12.5337 2.22771 12.5337 1.92811C12.5337 1.6285 12.4407 1.34078 12.2747 1.12645C12.194 1.02194 12.0976 0.938875 11.991 0.882156C11.8844 0.825438 11.7699 0.796217 11.6542 0.796217C11.5386 0.796217 11.424 0.825438 11.3175 0.882156C11.2109 0.938875 11.1144 1.02194 11.0337 1.12645L1.17044 13.8881C0.997202 14.1122 0.900248 14.4128 0.900248 14.7257C0.900248 15.0387 0.997202 15.3393 1.17044 15.5634L11.0337 28.325C11.1144 28.4295 11.2109 28.5126 11.3175 28.5693C11.4241 28.6261 11.5386 28.6553 11.6542 28.6553C11.7699 28.6553 11.8844 28.6261 11.991 28.5693C12.0976 28.5126 12.194 28.4295 12.2747 28.325L12.2747 28.3274Z" fill="white"/>
</svg>