<svg width="11" height="12" viewBox="0 0 11 12" fill="none" xmlns="http://www.w3.org/2000/svg">
<path d="M10.8636 9C10.699 9.27509 10.4007 9.42857 10.0939 9.42857C9.93843 9.42858 9.78566 9.38903 9.65099 9.3139L6.39526 7.48393V11.1429C6.39526 11.6162 5.9978 12 5.53265 12C5.06751 12 4.62012 11.617 4.62012 11.1429V7.48393L1.33887 9.31313C1.19935 9.39107 1.0468 9.42857 0.896466 9.42857C0.589698 9.42857 0.291529 9.27498 0.126773 9C-0.118087 8.58991 0.0270872 8.06571 0.451847 7.82893L3.70758 6L0.451847 4.17054C0.0271981 3.93482 -0.118142 3.40982 0.10181 3C0.310667 2.69196 0.660981 2.53661 1.00464 2.57679C1.11919 2.59018 1.23291 2.62768 1.33942 2.68661L4.62012 4.51607V0.857143C4.62012 0.383839 5.01758 0 5.50769 0C5.9978 0 6.39526 0.383839 6.39526 0.857143V4.51607L9.67651 2.68687C9.77945 2.62941 9.8933 2.59251 10.0113 2.57837C10.3533 2.53661 10.7055 2.69196 10.8636 3C11.1085 3.41009 10.9633 3.93429 10.5386 4.17107L7.28284 6L10.5641 7.82893C10.9885 8.06518 11.1327 8.59018 10.8636 9Z" fill="#B93333"/>
</svg>