<svg width="16" height="8" viewBox="0 0 16 8" fill="none" xmlns="http://www.w3.org/2000/svg">
<path d="M14.1345 0.179359L7.59373 6.55527L1.05292 0.179359C0.936062 0.0652126 0.779183 0.00130859 0.615823 0.00130859C0.452464 0.00130859 0.295585 0.0652126 0.178722 0.179359C0.122138 0.234801 0.0771845 0.300975 0.0464958 0.374008C0.0158072 0.447041 0 0.525463 0 0.604682C0 0.6839 0.0158072 0.762322 0.0464958 0.835355C0.0771845 0.908388 0.122138 0.974563 0.178722 1.03L7.137 7.81423C7.2592 7.93334 7.42309 8 7.59373 8C7.76438 8 7.92827 7.93334 8.05047 7.81423L15.0087 1.03131C15.0657 0.975831 15.111 0.909493 15.142 0.836218C15.1729 0.762943 15.1888 0.684216 15.1888 0.604682C15.1888 0.525148 15.1729 0.44642 15.142 0.373145C15.111 0.29987 15.0657 0.233533 15.0087 0.17805C14.8919 0.0639034 14.735 0 14.5716 0C14.4083 0 14.2514 0.0639034 14.1345 0.17805V0.179359Z" fill="#00497B"/>
</svg>