<svg width="22" height="20" viewBox="0 0 22 20" fill="none" xmlns="http://www.w3.org/2000/svg">
<path d="M9.55423 4.81668L6.17123 1.30239C5.78123 0.897412 5.06623 0.899212 4.61323 1.30779L1.83123 3.81594C1.00323 4.56199 0.766232 5.66983 1.24523 6.55807C4.10685 11.8902 8.88528 16.1966 14.8062 18.7793C15.7922 19.2104 17.0222 18.9971 17.8502 18.2511L20.6582 15.7195C21.1132 15.31 21.1142 14.663 20.6602 14.312L16.7402 11.2837C16.3302 10.9669 15.6932 11.0083 15.2822 11.3791L13.9182 12.6084C13.8484 12.6743 13.7565 12.7177 13.6566 12.732C13.5567 12.7463 13.4543 12.7307 13.3652 12.6876C11.1357 11.5322 9.28622 9.86558 8.00523 7.8576C7.95726 7.77728 7.93989 7.68501 7.95578 7.59495C7.97168 7.50489 8.01996 7.42201 8.09323 7.35902L9.45323 6.1342C9.86523 5.76162 9.91023 5.18566 9.55423 4.81578V4.81668Z" stroke="#00497B" stroke-linecap="round" stroke-linejoin="round"/>
</svg>